<svg fill="#fff" viewBox="-10 0 512 512.002" xmlns="http://www.w3.org/2000/svg"><path d="m218.421875 0h-189.84375v63.167969h189.84375zm-15 48.167969h-159.84375v-33.167969h159.84375zm0 0"/><path d="m368.636719 472.417969c24.941406-25.183594 38.679687-58.570313 38.679687-94.015625 0-30.421875-10.5-60.1875-29.5625-83.820313-12.058594-14.949219-29.996094-24.109375-49.214844-25.132812-17.128906-.910157-33.953124 4.691406-47.074218 15.511719v-.492188l14.582031-14.566406 9.539063.003906h.03125c33.355468 0 60.503906-27.132812 60.523437-60.492188l.007813-20.152343-20.148438-.007813h-.03125c-16.15625 0-31.34375 6.285156-42.773438 17.703125-11.4375 11.425781-17.738281 26.621094-17.75 42.789063l-.003906 9.546875-3.976562 3.972656v-44.847656h-15v66.496093c-13.101563-10.921874-29.953125-16.632812-47.128906-15.785156-19.027344.929688-36.851563 9.867188-48.890626 24.519532-19.59375 23.847656-30.363281 54.003906-30.324218 84.921874.042968 35.734376 14.175781 69.363282 39.792968 94.691407 25.300782 25.015625 58.5625 38.742187 93.808594 38.742187.457032 0 .917969-.003906 1.371094-.007812 35.394531-.359375 68.617188-14.414063 93.542969-39.578125zm-54.84375-254.847657c8.597656-8.589843 20.019531-13.316406 32.171875-13.316406h5.175781l-.003906 5.152344c-.011719 23.125-17.355469 42.269531-39.714844 45.128906l20.800781-20.78125-10.601562-10.613281-20.808594 20.789063c1.269531-9.953126 5.765625-19.152344 12.980469-26.359376zm-38.851563 279.421876c-31.714844.304687-61.722656-11.894532-84.480468-34.398438-22.753907-22.496094-35.304688-52.339844-35.34375-84.042969-.03125-27.445312 9.523437-54.214843 26.914062-75.378906 9.496094-11.558594 23.003906-18.328125 38.035156-19.0625.863282-.042969 1.726563-.0625 2.589844-.0625 14.097656 0 27.734375 5.613281 37.746094 15.625l13.558594 13.5625 13.289062-13.289063c10.664062-10.667968 25.414062-16.324218 40.488281-15.519531 14.976563.800781 28.949219 7.933594 38.339844 19.574219 17.164063 21.277344 26.238281 47.003906 26.238281 74.402344 0 64.738281-52.65625 117.9375-117.375 118.589844zm0 0"/><path d="m165.117188 378.539062c.035156 28.824219 11.40625 56.027344 32.019531 76.589844l10.59375-10.617187c-17.773438-17.734375-27.582031-41.171875-27.613281-65.992188zm0 0"/><path d="m426.914062 210.117188v261.882812h-47.726562v15h62.726562v-261.882812h17.5c4.355469 0 7.894532-3.542969 7.894532-7.894532v-14.042968c0-17.863282-14.53125-32.394532-32.390625-32.394532h-175.417969v15h175.417969c9.589843 0 17.390625 7.804688 17.390625 17.394532v6.9375zm0 0"/><path d="m434.917969 145.785156h-186.964844v15h186.964844c23.375 0 42.390625 19.019532 42.390625 42.394532v14.042968c0 9.867188-8.027344 17.894532-17.894532 17.894532h-7.5v261.882812h-104.300781v15h119.300781v-262.746094c14.535157-3.402344 25.394532-16.472656 25.394532-32.03125v-14.042968c0-31.648438-25.746094-57.394532-57.390625-57.394532zm0 0"/><path d="m247 258.289062v-84.957031l-44.328125-61.4375v-21.144531h1.855469l9.394531-9.394531v-10.6875h-15v4.476562l-.605469.605469h-10.644531v40.992188l44.328125 61.4375v80.109374zm0 0"/><path d="m222 256.957031v-37.703125h-197v267.746094h143.515625v-15h-128.515625v-237.746094h167v22.703125zm0 0"/><path d="m65 424.78125h-15v-129.308594h15zm0-139.308594h-15v-15h15zm0-25h-15v-15h15zm0 0"/><path d="m15 497v-313.746094h85.539062v-15h-78.378906l37.171875-51.511718v-26.039063l64.210938.046875v-15h-74.855469l-.609375-.605469v-4.476562h-15v10.6875l9.394531 9.394531h1.859375v21.144531l-44.332031 61.4375v338.667969h200.117188v-15zm0 0"/><path d="m190.335938 40h-42.667969v-15h42.667969zm-52.667969 0h-15v-15h15zm-25 0h-15v-15h15zm0 0"/><path d="m350.875 454.824219-10.65625-10.554688c17.472656-17.644531 27.097656-41.035156 27.097656-65.867187 0-5.785156-.515625-11.546875-1.539062-17.128906l14.757812-2.695313c1.183594 6.46875 1.78125 13.140625 1.78125 19.824219 0 28.8125-11.167968 55.953125-31.441406 76.421875zm12.789062-102.546875c-1.277343-4.425782-2.902343-8.792969-4.835937-12.976563l13.617187-6.289062c2.25 4.871093 4.144532 9.953125 5.632813 15.105469zm-9.128906-21.164063c-2.328125-3.953125-4.992187-7.792969-7.914062-11.417969l11.671875-9.417968c3.382812 4.1875 6.464843 8.636718 9.164062 13.214844zm0 0"/></svg>