<svg viewBox="0 0 60 60" xmlns="http://www.w3.org/2000/svg"><g fill="none" fill-rule="evenodd"><g id="015---Kebab" fill="#fff" fill-rule="nonzero" transform="translate(-1 -1)"><path id="Shape" d="m56.846 2.444c-3.4114215-2.19894041-7.8682578-1.86472199-10.9135725.81840946s-3.9381982 7.06238374-2.1864275 10.72359054l-1.09 1.09-2.871-2.871c-1.1869844-1.1341025-3.0560156-1.1341025-4.243 0l-3.591 3.595c-1.169058 1.1727537-1.169058 3.0702463 0 4.243l1.151 1.15c-.1-.007-.192-.021-.289-.025-2.0954679-.1092416-4.134798.6985353-5.5870993 2.2130452-1.4523014 1.5145099-2.1738839 3.5859079-1.9769007 5.6749548l-1.144-1.143c-1.1808637-1.1650855-3.0806945-1.1586967-4.2536956.0143044s-1.1793899 3.0728319-.0143044 4.2536956l1.143 1.143c-2.0890469-.1969832-4.1604449.5245993-5.6749548 1.9769007-1.5145099 1.4523013-2.3222868 3.4916314-2.2130452 5.5870993 0 .1.018.193.025.29l-1.151-1.151c-1.1714996-1.1711458-3.07050045-1.1711458-4.242 0l-2.151 2.15-2.153 2.153c-1.17114581 1.1714996-1.17114581 3.0705004 0 4.242l2.872 2.872-2.146 2.146c-.07566487.0764826-.13907736.1641807-.188.26l-2.853 5.706c-.19446207.3852584-.11983923.8518056.1850888 1.1571881.30492804.3053825.77136359.3807 1.1569112.1868119l5.706-2.853c.09655033-.0477189.18443143-.1112637.26-.188l2.146-2.146 2.872 2.872c1.1714996 1.1711458 3.0705004 1.1711458 4.242 0l4.305-4.3c1.169058-1.1727537 1.169058-3.0702463 0-4.243l-1.151-1.151c.1.007.192.022.29.025s.2.006.3.006c1.9420272.0147899 3.8089305-.7495491 5.183-2.122 1.5052705-1.5292957 2.2650482-3.641251 2.079-5.779l1.143 1.143c.7543538.7977181 1.8824101 1.1228484 2.9456154.8489903 1.0632053-.2738582 1.8938183-1.1034983 2.1689223-2.166382.2751039-1.0628836-.0487042-2.1913202-.8455377-2.9466083l-1.141-1.144c.194.015.389.029.584.029 1.995583.0256858 3.9127141-.7761379 5.2957953-2.2149213s2.1086234-3.3860639 2.0042047-5.3790787c0-.1-.018-.193-.025-.29l1.151 1.151c.5626237.562719 1.3257625.8788593 2.1215.8788593s1.5588763-.3161403 2.1215-.8788593l3.597-3.594c.562719-.5626237.8788593-1.3257625.8788593-2.1215s-.3161403-1.5588763-.8788593-2.1215l-2.872-2.872 2.2-2.2c1.4031488-1.420337 1.5590607-3.6523836.367-5.254-.5003092-.673269-.7004101-1.5232454-.553-2.349.1555003-.84472753.6545037-1.58707662 1.378-2.05.9822262-.63406868 2.2447738-.63406868 3.227 0 .783647.49236478 1.3003275 1.31489251 1.4036839 2.23458981.1033565.91969729-.2178688 1.83638969-.8726839 2.49041019-1.1767691 1.178933-1.1767691 3.088067 0 4.267 1.1961931 1.1352468 3.0718069 1.1352468 4.268 0 1.9373786-1.9400879 2.8940121-4.6519306 2.6027441-7.37819915-.291268-2.72626851-1.7992236-5.17480041-4.1027441-6.66180085zm-49.732 53.885-2.878 1.439 1.439-2.878 2.031-2.032 1.439 1.442zm13.449-3.464-1.444 1.445-.007-.007c-.3947662-.3628283-1.0054379-.3497457-1.3843032.0296562s-.3910835.9900915-.0276968 1.3843438l.007.007-1.446 1.445c-.3958895.3771429-1.0181105.3771429-1.414 0l-10.013-10.011c-.39038194-.3904999-.39038194-1.0235001 0-1.414l1.445-1.444.006.006c.2527654.2527654.62117901.3514816.96646299.258963.34528397-.0925186.61498146-.362216.70750001-.7075.09251856-.345284-.00619758-.7136976-.258963-.966463l-.006-.006 1.445-1.445c.39049985-.3903819 1.0235001-.3903819 1.414 0l10.01 10.01c.187777.1875683.2932867.4420908.2932867.7075s-.1055097.5199317-.2932867.7075zm4.625-7.477c-2.368446 2.1662071-6.0434021 2.0065042-8.215-.357-2.3586591-2.1738503-2.5181849-5.8447304-.357-8.215 2.3674517-2.1568059 6.031199-2.0010062 8.207.349l.012.012c2.3537947 2.1750766 2.5114371 5.8419376.353 8.211zm7.489-6.076c.3769654.4006882.3673936 1.0283782-.0216141 1.4173859s-1.0166977.3985795-1.4173859.0216141l-4.988-4.987v-.006l-.005-.005-4.988-4.987c-.3873105-.3990994-.3826536-1.0351631.0104588-1.4285488.3931125-.3933856 1.0291728-.3984843 1.4285412-.0114512l4.991 4.991zm4.636-6.05c-2.3690624 2.1584371-6.0359234 2.0007947-8.211-.353l-.002-.009c-2.3548664-2.1745799-2.5125474-5.8423404-.353-8.211 2.3704714-2.1606285 6.0409004-2.0011223 8.215.357 2.3575569 2.1756467 2.5144117 5.8472106.351 8.216zm11.365-8.926c.0009424.2653928-.1046045.520074-.293.707l-.736.736-.006-.007c-.3907415-.3904653-1.0240347-.3902414-1.4145.0005-.3904653.3907415-.3902414 1.0240347.0005 1.4145l.006.006-1.444 1.445c-.1875683.187777-.4420908.2932867-.7075.2932867s-.5199317-.1055097-.7075-.2932867l-10.011-10.011c-.3903819-.3904999-.3903819-1.0235001 0-1.414l1.445-1.445.007.006c.2510745.2599566.6228779.3642126.9725073.2726972.3496295-.0915155.6226744-.3645604.7141899-.7141899.0915154-.3496294-.0127406-.7214328-.2726972-.9725073l-.006-.006.735-.735c.395481-.3781625 1.018519-.3781625 1.414 0l10.011 10.011c.188338.1865548.2938987.4409093.293.706zm8.254-9.266c-.4044029.3809809-1.0355971.3809809-1.44 0-.3960085-.3979314-.3960085-1.0410686 0-1.439 1.8957103-1.900173 1.9667263-4.95362376.1614049-6.93987391-1.8053214-1.98625014-4.8516601-2.20630803-6.9237096-.50014692-2.0720495 1.70616112-2.4406241 4.73811723-.8376953 6.89102083.6025609.8041168.526905 1.9279048-.178 2.644l-2.2 2.2-1.44-1.436 1.611-1.611c.3210071-.3213852.3850776-.8187533.156-1.211-.852216-1.454564-1.1601827-3.1645057-.869-4.825.5306964-2.99940449 2.9232662-5.32144265 5.9372035-5.76217804 3.0139374-.44073539 5.9712209 1.09898071 7.3385505 3.82083224s.837108 6.0135254-1.315754 8.1683458z"/><path id="Shape" d="m31.957 25.766c-.3940152.3940476-.3939978 1.032896.000039 1.426922s1.0328852.394026 1.426922 0 .3940542-1.0328744.000039-1.426922c-.3945011-.392977-1.0324989-.392977-1.427 0z"/><path id="Shape" d="m22.685 40.745c-.288848.2884672-.3754177.7225604-.2193217 1.0997613s.5240982.6231799.9323217.6231799.7762257-.245979.9323217-.6231799.0695263-.8112941-.2193217-1.0997613c-.3939311-.3934118-1.0320689-.3934118-1.426 0z"/></g></g></svg>