<svg fill="#fff" viewBox="0 -100 511.9992 511" xmlns="http://www.w3.org/2000/svg"><path d="m498.734375 133.546875c-13.902344-37.925781-46.113281-75.902344-86.167969-101.589844-7.566406-4.851562-16.140625-9.109375-25.476562-12.65625-17.953125-6.8125-36.761719-10.214843-52.789063-12.640625-13.492187-2.046875-27.796875-3.601562-42.523437-4.625-3.863282-.277344-7.175782 2.628906-7.441406 6.472656-.269532 3.839844 2.628906 7.171876 6.472656 7.441407 14.355468.996093 28.28125 2.511719 41.402344 4.5 15.300781 2.316406 33.203124 5.546875 49.925781 11.894531 8.4375 3.203125 16.144531 7.023438 22.902343 11.355469 37.582032 24.097656 67.710938 59.480469 80.597657 94.644531 13.011719 35.507812 19.722656 84.167969-.472657 114.257812-14.085937 20.984376-40.261718 24.886719-65.578124 28.65625l-.125.019532c-7.898438 1.175781-16.0625 2.015625-23.953126 2.824218-4.128906.425782-8.398437.863282-12.609374 1.347657-12.816407 1.472656-45.707032 3.730469-74.71875 5.722656-5.410157.371094-10.753907.738281-15.902344 1.09375 7.125-4.457031 12.664062-9.613281 16.566406-15.476563 13.128906-19.71875 17.371094-46.015624 12.597656-78.164062-4.707031-31.734375-16.933594-60.160156-23.804687-74.28125-15.9375-32.769531-35.488281-58.746094-58.109375-77.199219-17.101563-13.957031-36.40625-23.933593-56.164063-29.238281.925781-.125 1.84375-.257812 2.773438-.375 10.820312-1.347656 22.332031-2.234375 34.214843-2.640625 12.617188-.429687 25.105469-.546875 37.121094-.351563.039063 0 .078125.003907.117188.003907 3.800781 0 6.910156-3.046875 6.972656-6.859375.0625-3.851563-3.007812-7.027344-6.859375-7.089844-12.246094-.199219-24.976563-.082031-37.828125.355469-12.300781.421875-24.230469 1.34375-35.464844 2.742187-27.019531 3.367188-58.441406 8.886719-82.878906 21.574219-10.761719 5.585937-20.46875 13.074219-28.839844 21.828125-18.261718 19.109375-30.878906 41.96875-44.203125 70.414062-6.457031 13.777344-18.203125 41.050782-24.351562 68.9375-7.160157 32.46875-5.015625 57.34375 6.375 73.929688 12.515625 18.226562 35.28125 26.320312 53.574219 32.824219l2.398437.855469c12.75 4.546874 25.894531 7.992187 39.074219 10.238281 20.242187 3.449219 53.492187 7.988281 88.28125 7.988281 19.382812 0 38.828125-.875 57.960937-2.914062 9.09375-.972657 32.527344-2.582032 57.335938-4.28125 30.585937-2.101563 62.21875-4.273438 75.351562-5.78125 4.132813-.476563 8.355469-.910157 12.445313-1.328126 8.046875-.828124 16.367187-1.683593 24.582031-2.90625l.125-.019531c26.992187-4.019531 57.585937-8.578125 75.105469-34.679687 29.089844-43.339844 8.875-108.03125 1.988281-126.824219zm-260.820313 161.777344c-46.992187 7.105469-101.628906.054687-130.015624-4.78125-12.378907-2.109375-24.738282-5.347657-36.726563-9.625l-2.417969-.863281c-17.242187-6.128907-36.789062-13.078126-46.746094-27.574219-9.117187-13.277344-10.546874-34.484375-4.25-63.035157 5.855469-26.566406 17.148438-52.769531 23.359376-66.023437 12.742187-27.203125 24.703124-48.953125 41.65625-66.691406 44.082031-46.125 107.585937-31.703125 147.9375 1.21875 21.039062 17.164062 39.335937 41.554687 54.382812 72.492187 6.519531 13.402344 18.117188 40.34375 22.554688 70.230469 4.246093 28.621094.742187 51.628906-10.414063 68.386719-8.5 12.761718-28.457031 21.601562-59.320313 26.265625zm0 0"/><path d="m230.816406 161.828125c9.230469-5.222656 15.730469-16.71875 16.957032-30.003906.066406-.730469.125-1.464844.164062-2.195313 1.078125-18.699218-6.066406-38.769531-18.65625-52.386718-11.40625-12.34375-26.886719-22.351563-46.011719-29.75-22.417969-8.667969-45.21875-9.320313-60.992187-1.738282-11.324219 5.441406-19.109375 14.683594-23.148438 27.476563-2.289062 7.253906-2.242187 14.207031.132813 20.105469 4.460937 11.082031 15.828125 16.191406 25.230469 19.40625 9.523437 3.253906 19.351562 5.953124 29.203124 8.015624.785157.164063 1.574219.324219 2.367188.488282 5.410156 1.105468 10.519531 2.152344 14.90625 4.308594 6.449219 3.175781 10.953125 9.582031 15.722656 16.371093 5.402344 7.679688 10.984375 15.621094 20.09375 20.003907 4.558594 2.195312 8.683594 3.019531 12.3125 3.019531 4.851563 0 8.8125-1.476563 11.71875-3.121094zm-17.980468-12.464844c-5.835938-2.8125-10.15625-8.957031-14.730469-15.460937-5.308594-7.554688-11.328125-16.113282-20.976563-20.863282-5.992187-2.949218-12.234375-4.226562-18.273437-5.460937-.765625-.15625-1.535157-.3125-2.300781-.472656-9.292969-1.945313-18.566407-4.492188-27.550782-7.5625-6.589844-2.253907-14.453125-5.585938-16.800781-11.417969-1.140625-2.824219-1.058594-6.625.230469-10.699219 2.871094-9.09375 8.066406-15.34375 15.886718-19.101562 5.484376-2.636719 12.207032-3.941407 19.640626-3.941407 9.324218 0 19.765624 2.054688 30.277343 6.121094 17.125 6.621094 30.855469 15.4375 40.804688 26.207032 10.105469 10.929687 15.839843 27.070312 14.972656 42.121093 0 0 0 .003907-.003906.007813-.03125.574218-.074219 1.144531-.125 1.707031-.789063 8.535156-4.78125 16.226563-9.9375 19.144531-3.226563 1.824219-6.859375 1.71875-11.113281-.328125zm0 0"/><path d="m81.027344 208.914062c5.96875 2.121094 12.570312 3.171876 20.027344 3.171876 2.519531 0 5.132812-.121094 7.855468-.359376 3.835938-.335937 6.671875-3.71875 6.335938-7.554687-.335938-3.839844-3.714844-6.683594-7.558594-6.339844-8.738281.765625-15.929688.09375-21.988281-2.0625-9.734375-3.460937-19.894531-14.300781-23.125-24.679687-4.382813-14.078125-2.34375-30.71875 4.742187-38.710938 6.449219-7.265625 20.398438-5.234375 28.246094-1.472656 1.699219.8125 3.386719 1.695312 5.171875 2.628906 6.085937 3.183594 12.382813 6.472656 19.859375 7.464844 4.0625.535156 7.601562.710938 10.726562.867188 8.90625.441406 12.96875.640624 19.050782 8.171874 6.789062 8.414063 9.449218 15.855469 7.90625 22.113282-1.695313 6.855468-8.867188 13.328125-20.207032 18.226562-3.535156 1.527344-5.160156 5.632813-3.632812 9.167969s5.628906 5.167969 9.167969 3.636719c15.652343-6.765625 25.410156-16.339844 28.210937-27.6875 2.644532-10.71875-.917968-22.230469-10.59375-34.214844-10.003906-12.394531-19.335937-12.855469-29.214844-13.347656-2.992187-.148438-6.089843-.300782-9.582031-.761719-5.03125-.667969-9.984375-3.257813-15.230469-6-1.8125-.945313-3.683593-1.925781-5.601562-2.84375-14.105469-6.761719-33.992188-7.289063-44.710938 4.792969-10.394531 11.71875-13.53125 33.148437-7.625 52.117187 4.542969 14.582031 17.902344 28.746094 31.769532 33.675781zm0 0"/><path d="m292.851562 211.078125c-.371093-2.804687-.726562-5.453125-.992187-8.101563-1.242187-12.355468-2.648437-26.359374-14.292969-38.832031-4.039062-4.328125-9.503906-6.628906-15.425781-6.503906-6.976563.160156-14.074219 3.703125-18.992187 9.484375-5.21875 6.136719-6.148438 12.925781-6.96875 18.914062-.492188 3.597657-.957032 7-2.332032 9.957032-.289062.625-.613281 1.277344-.964844 1.933594-2.382812 4.464843-5.605468 8.570312-9.011718 12.914062-7.121094 9.078125-15.191406 19.367188-14.945313 33.941406.085938 5.207032.515625 11.308594 3.042969 17.09375 5.03125 11.515625 17.726562 19.097656 31.496094 19.097656.921875 0 1.851562-.035156 2.777344-.101562 14.585937-1.085938 26.195312-9.648438 33.367187-16.640625 5.410156-5.273437 9.105469-10.441406 11.296875-15.800781 5.226562-12.785156 3.484375-25.839844 1.945312-37.355469zm-14.859374 32.074219c-1.472657 3.601562-4.050782 7.128906-8.117188 11.09375-5.515625 5.375-14.269531 11.945312-24.664062 12.71875-8.859376.667968-17.472657-3.828125-20.460938-10.667969-1.542969-3.535156-1.816406-7.917969-1.878906-11.746094-.164063-9.625 5.460937-16.792969 11.972656-25.09375 3.628906-4.628906 7.382812-9.414062 10.34375-14.957031.476562-.890625.917969-1.777344 1.316406-2.636719 2.253906-4.855469 2.914063-9.679687 3.496094-13.933593.667969-4.882813 1.195312-8.738282 3.773438-11.769532 2.304687-2.710937 5.714843-4.507812 8.6875-4.574218.0625-.003907.121093-.003907.179687-.003907 1.878906 0 3.425781.679688 4.730469 2.078125 7.863281 8.425782 9.253906 17.222656 10.609375 30.710938.289062 2.875.671875 5.757812 1.046875 8.550781 1.433594 10.742187 2.785156 20.886719-1.035156 30.230469zm0 0"/><path d="m194.550781 193.359375c-6.203125-1.914063-13.523437.558594-19.585937 6.613281l-1.308594 1.308594c-15.121094 15.113281-25.113281 25.097656-47.070312 27.484375-15.484376 1.6875-32.964844-.679687-53.433594-7.230469l-1.25-.402344c-5.492188-1.769531-11.699219-3.773437-18.457032-3.535156-8.078124.289063-17.527343 4.566406-20.433593 13.472656-3.4375 10.535157 3.628906 21.09375 18.894531 28.246094 34.207031 16.027344 72.398438 24.445313 110.742188 24.445313 1.5625 0 3.128906-.011719 4.691406-.039063 4.453125-.082031 9.179687-.34375 13.6875-2.554687 8.039062-3.945313 12.757812-13.066407 12.617187-24.402344-.027343-2.433594-.226562-4.796875-.414062-7.078125-.355469-4.292969-.695313-8.347656.210937-11.824219.644532-2.488281 2.609375-5.519531 4.683594-8.730469 3.886719-6.007812 8.726562-13.484374 7.082031-22.113281-1.824219-9.59375-7.460937-12.675781-10.65625-13.660156zm-8.132812 28.199219c-2.585938 3.996094-5.261719 8.128906-6.476563 12.796875-1.503906 5.773437-1.027344 11.46875-.609375 16.488281.175781 2.136719.34375 4.152344.367188 6.097656.054687 4.488282-1.179688 9.921875-4.8125 11.707032-1.9375.949218-4.792969 1.074218-7.792969 1.128906-37.78125.683594-75.582031-7.304688-109.265625-23.089844-6.40625-3.003906-12.636719-7.980469-11.554687-11.289062.652343-2 4.089843-3.734376 7.667968-3.859376.207032-.007812.414063-.011718.621094-.011718 4.113281 0 8.464844 1.402344 13.0625 2.882812l1.277344.410156c22.367187 7.15625 41.730468 9.710938 59.195312 7.808594 26.835938-2.917968 39.449219-15.523437 55.417969-31.484375l1.300781-1.300781c2.757813-2.753906 5.132813-3.277344 5.542969-3.199219.175781.136719.765625.976563 1.148437 2.984375.59375 3.136719-2.296874 7.605469-5.089843 11.929688zm0 0"/></svg>