<svg fill="#ed3a3a" viewBox="0 -100 511.999 511" xmlns="http://www.w3.org/2000/svg"><path d="M498.734 133.547c-13.902-37.926-46.113-75.902-86.168-101.59-7.566-4.852-16.14-9.11-25.476-12.656-17.953-6.813-36.762-10.215-52.79-12.64-13.491-2.048-27.796-3.602-42.523-4.626a6.953 6.953 0 00-7.441 6.473 6.974 6.974 0 006.473 7.441c14.355.996 28.28 2.512 41.402 4.5 15.3 2.317 33.203 5.547 49.926 11.895 8.437 3.203 16.144 7.023 22.902 11.355 37.582 24.098 67.711 59.48 80.598 94.645 13.011 35.508 19.722 84.168-.473 114.258-14.086 20.984-40.262 24.886-65.578 28.656l-.125.02c-7.898 1.175-16.063 2.015-23.953 2.824-4.13.425-8.399.863-12.61 1.347-12.816 1.473-45.707 3.73-74.718 5.723-5.41.371-10.754.738-15.903 1.094 7.125-4.457 12.664-9.614 16.567-15.477 13.129-19.719 17.37-46.016 12.597-78.164-4.707-31.734-16.933-60.16-23.804-74.281-15.938-32.77-35.489-58.746-58.11-77.2-17.101-13.956-36.406-23.933-56.164-29.238.926-.125 1.844-.258 2.774-.375 10.82-1.347 22.332-2.234 34.215-2.64a741.787 741.787 0 0137.12-.352c.04 0 .079.004.118.004a6.976 6.976 0 00.113-13.95 755.998 755.998 0 00-37.828.356c-12.3.422-24.23 1.344-35.465 2.742-27.02 3.368-58.441 8.887-82.879 21.575-10.761 5.586-20.468 13.074-28.84 21.828-18.261 19.11-30.878 41.968-44.203 70.414-6.457 13.777-18.203 41.05-24.351 68.937-7.16 32.47-5.016 57.344 6.375 73.93 12.515 18.227 35.281 26.32 53.574 32.824l2.398.856c12.75 4.547 25.895 7.992 39.075 10.238 20.242 3.45 53.492 7.988 88.28 7.988 19.384 0 38.829-.875 57.962-2.914 9.094-.972 32.527-2.582 57.336-4.281 30.586-2.102 62.218-4.274 75.351-5.781 4.133-.477 8.356-.91 12.446-1.328 8.046-.829 16.367-1.684 24.582-2.907l.125-.02c26.992-4.019 57.586-8.577 75.105-34.679 29.09-43.34 8.875-108.031 1.988-126.824zm-260.82 161.777c-46.992 7.106-101.629.055-130.016-4.781a219.196 219.196 0 01-36.726-9.625l-2.418-.863c-17.242-6.13-36.79-13.078-46.746-27.575-9.117-13.277-10.547-34.484-4.25-63.035 5.855-26.566 17.148-52.77 23.36-66.023C53.858 96.219 65.82 74.469 82.772 56.73c44.082-46.125 107.586-31.703 147.938 1.22 21.039 17.163 39.336 41.554 54.383 72.491 6.52 13.403 18.117 40.344 22.554 70.23 4.247 28.622.743 51.63-10.414 68.388-8.5 12.761-28.457 21.601-59.32 26.265zm0 0"/><path d="M230.816 161.828c9.23-5.223 15.73-16.719 16.957-30.004.067-.73.125-1.465.165-2.195 1.078-18.7-6.067-38.77-18.657-52.387-11.406-12.344-26.886-22.351-46.011-29.75-22.418-8.668-45.22-9.32-60.993-1.738-11.324 5.441-19.109 14.684-23.148 27.476-2.29 7.254-2.242 14.207.133 20.106 4.46 11.082 15.828 16.191 25.23 19.406a247.602 247.602 0 0029.203 8.016c.785.164 1.575.324 2.368.488 5.41 1.106 10.519 2.152 14.906 4.309 6.449 3.175 10.953 9.582 15.722 16.37 5.403 7.68 10.985 15.622 20.094 20.005 4.559 2.195 8.684 3.02 12.313 3.02 4.851 0 8.812-1.477 11.718-3.122zm-17.98-12.465c-5.836-2.812-10.156-8.957-14.73-15.46-5.31-7.555-11.329-16.114-20.977-20.864-5.992-2.95-12.234-4.227-18.274-5.46-.765-.157-1.535-.313-2.3-.474a233.451 233.451 0 01-27.551-7.562c-6.59-2.254-14.453-5.586-16.8-11.418-1.141-2.824-1.06-6.625.23-10.7 2.87-9.093 8.066-15.343 15.886-19.1 5.485-2.638 12.207-3.942 19.64-3.942 9.325 0 19.767 2.054 30.278 6.12 17.125 6.622 30.856 15.438 40.805 26.208 10.105 10.93 15.84 27.07 14.973 42.121 0 0 0 .004-.004.008a48.026 48.026 0 01-.125 1.707c-.79 8.535-4.782 16.226-9.938 19.144-3.226 1.825-6.86 1.72-11.113-.328zM81.027 208.914c5.97 2.121 12.57 3.172 20.028 3.172 2.52 0 5.132-.121 7.855-.36a6.972 6.972 0 006.336-7.554c-.336-3.84-3.715-6.684-7.558-6.34-8.739.766-15.93.094-21.989-2.062-9.734-3.461-19.894-14.301-23.125-24.68-4.383-14.078-2.344-30.719 4.742-38.711 6.45-7.266 20.399-5.234 28.246-1.473 1.7.813 3.387 1.696 5.172 2.63 6.086 3.183 12.383 6.472 19.86 7.464 4.062.535 7.601.71 10.726.867 8.907.442 12.97.64 19.051 8.172 6.79 8.414 9.45 15.856 7.906 22.113-1.695 6.856-8.867 13.328-20.207 18.227-3.535 1.527-5.16 5.633-3.632 9.168s5.628 5.168 9.167 3.637c15.653-6.766 25.41-16.34 28.211-27.688 2.645-10.719-.918-22.23-10.593-34.215-10.004-12.394-19.336-12.855-29.215-13.347-2.992-.149-6.09-.301-9.582-.762-5.031-.668-9.985-3.258-15.23-6-1.813-.945-3.684-1.926-5.602-2.844-14.106-6.762-33.992-7.289-44.711 4.793-10.395 11.719-13.531 33.149-7.625 52.117 4.543 14.582 17.902 28.746 31.77 33.676zm211.825 2.164c-.372-2.805-.727-5.453-.993-8.101-1.242-12.356-2.648-26.36-14.293-38.832-4.039-4.329-9.503-6.63-15.425-6.504-6.977.16-14.075 3.703-18.993 9.484-5.218 6.137-6.148 12.926-6.968 18.914-.493 3.598-.957 7-2.332 9.957a37.08 37.08 0 01-.965 1.934c-2.383 4.465-5.606 8.57-9.012 12.914-7.121 9.078-15.191 19.367-14.945 33.941.086 5.207.515 11.309 3.043 17.094 5.031 11.516 17.726 19.098 31.496 19.098.922 0 1.851-.036 2.777-.102 14.586-1.086 26.196-9.648 33.367-16.64 5.41-5.274 9.106-10.442 11.297-15.801 5.227-12.786 3.485-25.84 1.946-37.356zm-14.86 32.074c-1.472 3.602-4.05 7.13-8.117 11.094-5.516 5.375-14.27 11.945-24.664 12.719-8.86.668-17.473-3.828-20.461-10.668-1.543-3.535-1.816-7.918-1.879-11.746-.164-9.625 5.461-16.793 11.973-25.094 3.629-4.629 7.383-9.414 10.344-14.957.476-.89.917-1.777 1.316-2.637 2.254-4.855 2.914-9.68 3.496-13.933.668-4.883 1.195-8.739 3.773-11.77 2.305-2.71 5.715-4.508 8.688-4.574.062-.004.121-.004.18-.004 1.879 0 3.425.68 4.73 2.078 7.863 8.426 9.254 17.223 10.61 30.711.289 2.875.671 5.758 1.046 8.55 1.434 10.743 2.786 20.888-1.035 30.231zm0 0"/><path d="M194.55 193.36c-6.202-1.915-13.523.558-19.585 6.613l-1.309 1.308c-15.12 15.114-25.113 25.098-47.07 27.485-15.484 1.687-32.965-.68-53.434-7.23l-1.25-.403c-5.492-1.77-11.699-3.774-18.457-3.535-8.078.289-17.527 4.566-20.433 13.472-3.438 10.535 3.629 21.094 18.894 28.246 34.207 16.028 72.399 24.446 110.742 24.446 1.563 0 3.13-.012 4.692-.04 4.453-.081 9.18-.343 13.687-2.554 8.04-3.945 12.758-13.066 12.618-24.402-.028-2.434-.227-4.797-.415-7.079-.355-4.292-.695-8.347.211-11.824.645-2.488 2.61-5.52 4.684-8.73 3.887-6.008 8.727-13.485 7.082-22.113-1.824-9.594-7.46-12.676-10.656-13.66zm-8.132 28.199c-2.586 3.996-5.262 8.129-6.477 12.796-1.504 5.774-1.027 11.47-.609 16.489.176 2.136.344 4.152.367 6.097.055 4.489-1.18 9.922-4.812 11.707-1.938.95-4.793 1.075-7.793 1.13-37.781.683-75.582-7.305-109.266-23.09-6.406-3.004-12.637-7.981-11.555-11.29.653-2 4.09-3.734 7.668-3.859.207-.008.414-.012.621-.012 4.114 0 8.465 1.403 13.063 2.883l1.277.41c22.368 7.157 41.73 9.711 59.196 7.809 26.836-2.918 39.449-15.524 55.418-31.484l1.3-1.301c2.758-2.754 5.133-3.278 5.543-3.2.176.137.766.977 1.149 2.985.594 3.137-2.297 7.605-5.09 11.93zm0 0"/></svg>