<svg id="Layer_3" enable-background="new 0 0 64 64" height="512" viewBox="0 0 64 64" width="512" xmlns="http://www.w3.org/2000/svg"><g><path d="m14.082 6.989 1.847-4.618c.148-.371.061-.795-.222-1.078-.282-.283-.707-.369-1.079-.222l-4.628 1.852-4.628-1.852c-.372-.147-.796-.061-1.079.222s-.37.707-.222 1.078l1.847 4.618c-2.914 1.491-4.918 4.518-4.918 8.011v34c0 3.493 2.004 6.52 4.918 8.011l-1.847 4.618c-.148.371-.061.795.222 1.078s.707.369 1.079.222l4.628-1.852 4.628 1.852c.121.048.247.071.372.071.26 0 .516-.102.707-.293.283-.283.37-.707.222-1.078l-1.847-4.618c2.914-1.491 4.918-4.518 4.918-8.011v-34c0-3.493-2.004-6.52-4.918-8.011zm-7.287-3.194 2.833 1.134c.239.096.504.096.743 0l2.833-1.134-.996 2.491c-.708-.18-1.445-.286-2.208-.286s-1.5.106-2.209.286zm6.41 56.41-2.833-1.134c-.239-.096-.504-.096-.743 0l-2.833 1.134.996-2.491c.708.18 1.445.286 2.208.286s1.5-.106 2.209-.286zm3.795-14.205h-8v-28h8zm0-30h-9c-.552 0-1 .447-1 1v30c0 .553.448 1 1 1h9v1c0 3.859-3.14 7-7 7s-7-3.141-7-7v-34c0-3.859 3.14-7 7-7s7 3.141 7 7z"/><path d="m33.301 7.635 2.594-5.188c.186-.371.123-.819-.159-1.124-.281-.305-.72-.405-1.107-.252l-4.629 1.852-4.628-1.852c-.385-.153-.826-.054-1.107.252-.281.305-.344.753-.159 1.124l2.594 5.188c-3.333 1.32-5.7 4.568-5.7 8.365v8c0 3.484 1.993 6.505 4.896 8-2.903 1.495-4.896 4.516-4.896 8v8c0 3.797 2.367 7.045 5.699 8.365l-2.594 5.188c-.186.371-.123.819.159 1.124.281.306.722.407 1.107.252l4.629-1.852 4.628 1.852c.121.048.247.071.372.071.274 0 .542-.113.736-.323.281-.305.344-.753.159-1.124l-2.594-5.188c3.332-1.32 5.699-4.568 5.699-8.365v-8c0-3.484-1.993-6.505-4.896-8 2.903-1.495 4.896-4.516 4.896-8v-8c0-3.797-2.367-7.045-5.699-8.365zm-6.23-3.73 2.558 1.023c.239.096.504.096.743 0l2.558-1.023-1.602 3.204c-.435-.065-.876-.109-1.328-.109s-.893.044-1.327.109zm5.858 56.19-2.558-1.023c-.239-.096-.504-.096-.743 0l-2.558 1.023 1.602-3.204c.435.065.876.109 1.328.109s.893-.044 1.327-.109zm4.071-20.095v8c0 3.859-3.14 7-7 7s-7-3.141-7-7v-8c0-3.859 3.14-7 7-7s7 3.141 7 7zm0-16c0 3.859-3.14 7-7 7s-7-3.141-7-7v-8c0-3.859 3.14-7 7-7s7 3.141 7 7z"/><path d="m49.013 7.036.968-4.84c.08-.396-.088-.802-.424-1.027s-.774-.226-1.111-.001l-2.446 1.63-2.445-1.63c-.335-.225-.774-.224-1.111.001-.337.226-.504.631-.424 1.027l.968 4.84c-1.2.914-1.988 2.343-1.988 3.964v42c0 1.621.788 3.05 1.987 3.964l-.968 4.84c-.08.396.088.802.424 1.027.337.225.776.227 1.111.001l2.446-1.63 2.445 1.63c.168.112.362.168.555.168.194 0 .388-.057.557-.169.336-.226.503-.631.424-1.027l-.968-4.84c1.199-.914 1.987-2.343 1.987-3.964v-42c0-1.621-.788-3.05-1.987-3.964zm-3.013 48.964c-1.654 0-3-1.346-3-3v-17h6v17c0 1.654-1.346 3-3 3zm-3-22v-4h6v4zm0-6v-17c0-1.654 1.346-3 3-3s3 1.346 3 3v17zm1.454-23.829.991.661c.336.225.773.225 1.109 0l.991-.661-.395 1.976c-.37-.088-.752-.147-1.15-.147s-.78.059-1.151.147zm3.092 55.658-.991-.661c-.336-.225-.773-.225-1.109 0l-.991.661.395-1.976c.37.088.752.147 1.15.147s.78-.059 1.151-.147z"/><path d="m63 53v-42c0-1.621-.788-3.05-1.987-3.964l.968-4.84c.08-.396-.088-.802-.424-1.027s-.774-.226-1.111-.001l-2.446 1.63-2.445-1.63c-.335-.225-.774-.224-1.111.001-.337.226-.504.631-.424 1.027l.968 4.84c-1.2.914-1.988 2.343-1.988 3.964v42c0 1.621.788 3.05 1.987 3.964l-.968 4.84c-.08.396.088.802.424 1.027.337.225.776.227 1.111.001l2.446-1.63 2.445 1.63c.168.112.362.168.555.168.194 0 .388-.057.557-.169.336-.226.503-.631.424-1.027l-.968-4.84c1.199-.914 1.987-2.343 1.987-3.964zm-5 3c-1.654 0-3-1.346-3-3v-17h6v17c0 1.654-1.346 3-3 3zm0-48c1.654 0 3 1.346 3 3v17h-6v-17c0-1.654 1.346-3 3-3zm3 22v4h-6v-4zm-4.546-25.829.991.661c.336.225.773.225 1.109 0l.991-.661-.395 1.976c-.37-.088-.752-.147-1.15-.147s-.78.059-1.151.147zm3.092 55.658-.991-.661c-.336-.225-.773-.225-1.109 0l-.991.661.395-1.976c.37.088.752.147 1.15.147s.78-.059 1.151-.147z"/><path d="m30 27v2c2.757 0 5-2.243 5-5h-2c0 1.654-1.346 3-3 3z"/><path d="m35 48h-2c0 1.654-1.346 3-3 3v2c2.757 0 5-2.243 5-5z"/></g></svg>