<svg height="511pt" viewBox="0 -32 511.99997 511" width="511pt" xmlns="http://www.w3.org/2000/svg"><path d="m148.917969 414.160156c-18.953125 0-39.050781-3.226562-58.402344-12.15625-26.914063-12.414062-47.128906-35.214844-55.464844-62.558594-7.765625-25.46875-4.28125-52.25 9.808594-75.410156 10.414063-17.117187 11.804687-31.316406 13.5625-49.292968.699219-7.144532 1.421875-14.527344 2.785156-22.714844 2.207031-13.257813 6.328125-26.039063 12.25-37.984375 19.523438-39.394531 54.777344-63.425781 94.296875-64.289063 28.308594-.628906 54.363282 9.441406 75.363282 29.089844 18.78125 17.578125 33.320312 42.453125 42.042968 71.945312 8.023438 27.121094 11.859375 55.253907 11.089844 81.359376-.855469 29.101562-7.195312 54.664062-18.84375 75.980468-15.734375 28.785156-40.226562 48.179688-72.785156 57.640625-15.515625 4.503907-34.917969 8.390625-55.703125 8.390625zm21.269531-310.597656c-18.84375.097656-36.914062 6.574219-52.96875 19.121094-22.203125 17.351562-37.609375 43.882812-42.230469 71.636718-1.289062 7.722657-1.984375 14.871094-2.660156 21.78125-1.777344 18.183594-3.457031 35.355469-15.535156 55.199219-11.992188 19.710938-14.96875 42.464844-8.378907 64.070313 7.175782 23.539062 24.652344 43.199218 47.949219 53.949218 36.667969 16.910157 76.988281 10.984376 104.355469 3.035157 28.863281-8.386719 50.539062-25.523438 64.425781-50.925781 20.316407-37.167969 22.789063-92 6.617188-146.675782-7.703125-26.039062-21-51.433594-42.058594-69.113281-9.199219-7.722656-19.761719-13.789063-31.195313-17.511719-9.527343-3.105468-19.019531-4.613281-28.320312-4.566406zm-90.472656 53.582031h.011718zm0 0"/><path d="m254.75 283.976562c-.027344-5.28125-.617188-10.597656-1.6875-15.898437 12.273438-9.394531 19.582031-24.511719 18.898438-40.632813-1.039063-24.5625-15.21875-51.699218-27.046876-67.472656-11.78125-15.714844-26.316406-27.804687-42.03125-34.960937-13.710937-6.242188-29.40625-11.941407-44.691406-9.28125-13.65625 2.378906-26.3125 13.496093-26.976562 27.921875-.324219 6.96875 1.59375 14.535156 5.398437 21.304687 3.339844 5.941407 8.066407 9.898438 12.839844 13.121094-4.230469 1.570313-7.910156 3.691406-11.003906 6.296875-1.628907-2.0625-3.535157-4.078125-5.800781-6.023438-6.496094-5.574218-16.039063-8.253906-24.910157-6.976562-7.523437 1.078125-13.769531 4.898438-17.585937 10.761719-6.355469 9.765625-5.929688 20.898437-5.558594 30.726562.589844 15.527344-3.617188 28.242188-9.617188 42.5625-6.074218 14.488281-12.355468 29.472657-14.972656 45.476563-1.898437 11.601562-1.53125 22.988281 1.058594 32.921875.972656 3.734375 4.789062 5.972656 8.519531 4.996093 3.734375-.972656 5.972657-4.785156 5-8.519531-2.101562-8.0625-2.375-17.449219-.789062-27.144531 2.351562-14.375 8.308593-28.589844 14.070312-42.332031 6.722657-16.039063 11.359375-31.027344 10.695313-48.496094-.324219-8.496094-.628906-16.523437 3.304687-22.570313 2.035157-3.125 5.394531-4.203124 7.855469-4.554687 4.855469-.699219 10.410156.8125 13.832031 3.75 2.746094 2.359375 4.75 4.800781 6.160157 7.378906.441406.800781-2.128907 7.507813-2.304688 8.882813-1.320312 10.136718 2.570312 20.871094-1.941406 30.558594-3.652344 7.832031-8.8125 14.121093-12.941406 21.621093-7.773438 14.140625-8.621094 33.625-2.152344 49.644531 4.917968 12.191407 15.109375 22.039063 25.953125 25.085938 2.773437.777344 5.457031 1.113281 8.0625 1.113281.707031 0 1.40625-.035156 2.101562-.082031 2.421875 3.714844 4.085938 7.511719 4.359375 11.839844.289063 4.546875-1.121094 8.332031-4.304687 11.5625-5.269531 5.347656-15.238281 8.632812-24.820313 8.160156-11.667968-.570312-22.773437-4.355469-31.273437-10.65625-3.101563-2.296875-7.476563-1.648438-9.773438 1.449219-2.296875 3.101562-1.648437 7.476562 1.449219 9.773437 20.136719 14.933594 54.992188 20.746094 74.371094 1.082032 5.964844-6.054688 8.835937-13.75 8.296875-22.253907-.351563-5.503906-1.996094-10.308593-4.289063-14.636719 2.824219-1.195312 5.546875-2.546874 8.167969-3.851562 3.253906-1.617188 6.324219-3.144531 9.285156-4.230469 7.164063-2.628906 13.296875-2.386719 20.394531.945313-2.363281 2.554687-5.199218 4.824218-8.164062 7.1875-3.277344 2.609375-6.667969 5.308594-9.8125 8.671875-7.09375 7.601562-9.078125 16.5-5.441406 24.414062 3.996094 8.695313 14.214844 14.34375 25.726562 14.34375.484375 0 .972656-.011719 1.464844-.03125 35.398438-1.46875 64.183594-32.882812 62.851562-68.597656-.394531-10.480469-4.148437-19.113281-10.226562-24.351563zm-105.957031-125.867187c-3.371094-5.996094-6.828125-17.855469 1.597656-24.261719 6.140625-4.664062 17.65625-9.339844 46.703125 3.882813 13.589844 6.1875 26.261719 16.777343 36.644531 30.625 10.628907 14.175781 23.359375 38.3125 24.265625 59.683593.4375 10.414063-3.53125 18.988282-9.226562 25.074219-7.746094-21.03125-22.160156-40.832031-38.117188-55.5-11.597656-10.65625-24.1875-20.949219-40.195312-22.433593-2.804688-2.160157-5.710938-3.96875-8.441406-5.652344-5.59375-3.449219-10.429688-6.429688-13.230469-11.417969zm44.464843 148.054687c-6.796874-1.140624-13.671874-.253906-20.117187 2.109376-3.679687 1.351562-7.246094 3.125-10.691406 4.839843-8.160157 4.058594-15.207031 7.558594-22.347657 5.558594-7.769531-2.179687-14.023437-10.042969-16.777343-16.863281-4.957031-12.28125-4.394531-27.074219 1.441406-37.679688 1.601563-2.917968 3.433594-5.738281 5.371094-8.726562 2.792969-4.3125 5.679687-8.769532 7.988281-13.726563 4.472656-9.597656 3.425781-19.523437 2.957031-29.730469-.601562-13.164062 6.613281-20.808593 21.445313-22.722656 14.882812-1.910156 26.324218 7.324219 38.675781 18.679688 13.160156 12.09375 24.699219 27.808594 31.664063 43.117187 5.714843 12.554688 11.300781 31.351563 5.480468 49.585938-2.09375 6.5625-8.492187 14.839843-14.671875 16.699219-4.894531 1.476562-9.800781-2.671876-13.953125-4.53125-5.003906-2.238282-11.03125-5.699219-16.464844-6.609376zm8.285157 56.796876c-7.117188.289062-12.402344-2.886719-13.917969-6.1875-1.492188-3.25.789062-6.710938 2.964844-9.042969 2.433594-2.609375 5.28125-4.875 8.296875-7.277344 4.175781-3.324219 8.476562-6.757813 12.09375-11.40625 4.933593 2.113281 10.695312 3.453125 16.722656 1.636719 10.617187-3.199219 19.382813-13.949219 23.179687-23.675782.058594.601563.105469 1.210938.128907 1.835938 1.050781 28.179688-21.601563 52.964844-49.46875 54.117188zm0 0"/><path d="m211.949219 242.632812c-1.230469-7.21875-5.195313-13.527343-11.167969-17.761718s-13.238281-5.890625-20.457031-4.660156c-7.21875 1.226562-13.523438 5.195312-17.757813 11.167968-4.238281 5.972656-5.890625 13.238282-4.664062 20.453125 1.230468 7.21875 5.195312 13.527344 11.171875 17.761719 4.683593 3.324219 10.164062 5.058594 15.792969 5.058594 1.546874 0 3.105468-.132813 4.660156-.398438 14.902344-2.535156 24.957031-16.722656 22.421875-31.621094zm-24.765625 17.851563c-3.542969.601563-7.105469-.210937-10.03125-2.285156-2.929688-2.078125-4.875-5.171875-5.476563-8.710938-.601562-3.539062.207031-7.097656 2.285157-10.027343 2.078124-2.925782 5.167968-4.871094 8.707031-5.476563.765625-.128906 1.527343-.195313 2.285156-.195313 2.761719 0 5.449219.851563 7.746094 2.480469 2.929687 2.078125 4.871093 5.171875 5.476562 8.707031 1.242188 7.304688-3.6875 14.261719-10.992187 15.507813zm0 0"/><path d="m511.988281 194c-.480469-44.292969-13.902343-86.261719-37.789062-118.179688-1.078125-1.4375-2.195313-2.878906-3.320313-4.289062-2.40625-3.011719-6.804687-3.503906-9.816406-1.09375-3.015625 2.40625-3.507812 6.804688-1.097656 9.816406 1.03125 1.292969 2.058594 2.617188 3.046875 3.9375 22.125 29.558594 34.554687 68.609375 35.003906 109.957032.445313 41.136718-10.960937 80.699218-32.113281 111.398437-19.480469 28.269531-49.625 48.332031-87.179688 58.003906-5.121094 1.320313-10.445312 2.453125-16.03125 3.429688 1.644532-2.691407 3.230469-5.429688 4.746094-8.222657 16.523438-9.808593 30.867188-21.996093 41.53125-35.785156 21.710938-28.074218 33.859375-67.148437 35.121094-112.996094.875-31.683593-4.234375-64.367187-15.175782-97.140624-11.707031-35.058594-28.960937-62.59375-51.273437-81.839844-3.398437-2.933594-6.894531-5.644532-10.484375-8.152344 8.132812 2.121094 15.957031 4.601562 23.398438 7.4375 17.292968 6.585938 32.992187 15.632812 46.664062 26.894531 2.980469 2.453125 7.382812 2.027344 9.835938-.949219 2.453124-2.980468 2.027343-7.382812-.953126-9.835937-14.84375-12.226563-31.859374-22.039063-50.570312-29.167969-16.011719-6.101562-33.605469-10.660156-52.285156-13.554687-55.28125-8.5625-119.992188-1.472657-159.515625 42.425781-4.496094 4.996094-8.429688 10.335938-11.894531 16.121094-32.5625 1.488281-64.640626 10.070312-90.957032 29.867187-6.261718 4.707031-11.988281 9.914063-17.082031 15.574219-7.578125 8.410156-13.582031 17.785156-18.367187 28.660156-8.199219 18.640625-12.847657 39.394532-13.09375 58.433594-.363282 28.226562-5.671876 49.183594-17.210938 67.949219-12.015625 19.539062-17.039062 43.636719-14.46875 67.925781.542969 5.160156 1.425781 10.328125 2.664062 15.464844 4.484376 18.613281 13.652344 35.667968 26.511719 49.320312 15.875 16.863282 35.796875 30.035156 57.605469 38.105469 12.089844 4.472656 24.847656 7.773437 37.914062 9.816406 1.769532.277344 3.484376.523438 5.179688.753907 15.316406 2.128906 31.214844 3.1875 48.625 3.1875 8.570312 0 17.507812-.253907 26.914062-.757813 22.078126-1.179687 39.9375-3.683594 56.203126-7.875 37.402343-9.636719 68.140624-28.882813 89.503906-55.914063 11.015625-1.363281 21.003906-3.214843 30.433594-5.644531 40.859374-10.53125 73.78125-32.523437 95.199218-63.609375 22.773438-33.050781 35.050782-75.480468 34.578125-119.472656zm-317.875-138.558594c14.359375-15.945312 34.46875-27.890625 57.570313-34.609375 25.214844-7.332031 49.441406-9.027343 75.039062-1.847656 15.425782 4.328125 29.667969 12.132813 41.792969 22.589844 20.382813 17.578125 36.246094 43.042969 47.144531 75.6875 10.425782 31.21875 15.292969 62.28125 14.464844 92.328125-.824219 29.894531-7.082031 72.347656-32.207031 104.832031-5.339844 6.90625-11.839844 13.410156-19.1875 19.382813 3.859375-10.40625 6.910156-21.265626 9.117187-32.429688 3.453125-4.621094 6.621094-9.554688 9.492188-14.808594 11.648437-21.316406 17.992187-46.878906 18.847656-75.984375.765625-26.101562-3.070312-54.234375-11.09375-81.355469-8.722656-29.492187-23.257812-54.367187-42.042969-71.945312-20.996093-19.648438-47.0625-29.722656-75.359375-29.089844-28.722656.625-55.183594 13.5-74.996094 35.601563-7.917968-.921875-15.9375-1.523438-23.984374-1.730469 1.699218-2.289062 3.496093-4.503906 5.402343-6.621094zm182.585938 121.953125c-5.902344-14.492187-13.421875-27.96875-22.4375-40.011719-19.609375-26.203124-46.8125-46.464843-78.667969-58.601562-2.769531-1.054688-5.597656-2.046875-8.460938-3.011719.792969-1.269531 1.832032-2.449219 3.191407-3.484375 3.136719-2.382812 7.675781-4.769531 15.242187-4.769531 7.242188 0 17.257813 2.1875 31.460938 8.652344 13.589844 6.1875 26.261718 16.777343 36.644531 30.625 10.625 14.175781 23.359375 38.3125 24.261719 59.683593.167968 3.914063-.296875 7.558594-1.234375 10.917969zm15.195312-11.507812c-1.039062-24.566407-15.21875-51.699219-27.042969-67.472657-11.785156-15.714843-26.316406-27.804687-42.035156-34.960937-17.167968-7.816406-42.167968-16.5625-60.945312-2.289063-3.726563 2.832032-6.519532 6.371094-8.328125 10.464844-7.65625-2.085937-15.578125-3.859375-23.722657-5.308594 16.292969-15.050781 36.523438-23.6875 58.175782-24.160156.710937-.015625 1.417968-.023437 2.128906-.023437 46.78125 0 84.660156 33.878906 101.570312 91.054687 14.117188 47.730469 14.023438 95.578125.257813 131.695313.09375-3.101563.128906-6.207031.097656-9.324219-.222656-20.679688-3.269531-40.851562-8.882812-59.730469 5.957031-8.539062 9.191406-19.003906 8.726562-29.945312zm-214.359375 264.457031c-28.78125 3.984375-58.085937.117188-85.25-9.933594-19.332031-7.148437-38.402344-19.835937-52.28125-34.578125-28.679687-30.453125-35.117187-79.808593-12.976562-115.8125 12.9375-21.039062 18.882812-44.199219 19.277344-75.089843.363281-28.105469 9.082031-57.058594 27.875-77.925782 13.902343-15.441406 33.199218-27.125 55.382812-33.949218 11.140625-3.429688 23.003906-5.636719 35.285156-6.46875 3.230469-.21875 6.421875-.328126 9.566406-.328126 28.550782 0 53.460938 9.019532 74.164063 26.875 20.382813 17.582032 36.246094 43.046876 47.148437 75.6875 10.421876 31.21875 15.289063 62.285157 14.460938 92.328126-.824219 29.894531-7.078125 72.347656-32.207031 104.835937-21.285157 27.523437-60.714844 48.863281-100.445313 54.359375zm168.433594-63.238281c-19.480469 28.273437-49.628906 48.332031-87.179688 58.007812-9.734374 2.507813-20.132812 4.375-31.824218 5.695313 25.152344-10.878906 47.183594-27.03125 62.070312-46.277344 21.710938-28.070312 33.855469-67.144531 35.117188-112.996094.875-31.683594-4.230469-64.367187-15.175782-97.140625-11.707031-35.058593-28.957031-62.59375-51.273437-81.839843-3.394531-2.929688-6.894531-5.644532-10.484375-8.148438 8.136719 2.117188 15.957031 4.597656 23.402344 7.433594 29.796875 11.351562 54.175781 29.492187 72.457031 53.914062 22.125 29.5625 34.554687 68.609375 35 109.957032.445313 41.136718-10.957031 80.695312-32.109375 111.394531zm0 0"/></svg>