<svg display="none" xmlns="http://www.w3.org/2000/svg">

<symbol id="instagram" viewBox="0 0 24 24">
    <path d="m12.004 5.838c-3.403 0-6.158 2.758-6.158 6.158 0 3.403 2.758 6.158 6.158 6.158 3.403 0 6.158-2.758 6.158-6.158 0-3.403-2.758-6.158-6.158-6.158zm0 10.155c-2.209 0-3.997-1.789-3.997-3.997s1.789-3.997 3.997-3.997 3.997 1.789 3.997 3.997c.001 2.208-1.788 3.997-3.997 3.997z"/><path d="m16.948.076c-2.208-.103-7.677-.098-9.887 0-1.942.091-3.655.56-5.036 1.941-2.308 2.308-2.013 5.418-2.013 9.979 0 4.668-.26 7.706 2.013 9.979 2.317 2.316 5.472 2.013 9.979 2.013 4.624 0 6.22.003 7.855-.63 2.223-.863 3.901-2.85 4.065-6.419.104-2.209.098-7.677 0-9.887-.198-4.213-2.459-6.768-6.976-6.976zm3.495 20.372c-1.513 1.513-3.612 1.378-8.468 1.378-5 0-7.005.074-8.468-1.393-1.685-1.677-1.38-4.37-1.38-8.453 0-5.525-.567-9.504 4.978-9.788 1.274-.045 1.649-.06 4.856-.06l.045.03c5.329 0 9.51-.558 9.761 4.986.057 1.265.07 1.645.07 4.847-.001 4.942.093 6.959-1.394 8.453z"/><circle cx="18.406" cy="5.595" r="1.439"/>
</symbol>

<symbol id="fb" viewBox="0 0 512 512">
    <path d="m437 0h-362c-41.351562 0-75 33.648438-75 75v362c0 41.351562 33.648438 75 75 75h151v-181h-60v-90h60v-61c0-49.628906 40.371094-90 90-90h91v90h-91v61h91l-15 90h-76v181h121c41.351562 0 75-33.648438 75-75v-362c0-41.351562-33.648438-75-75-75zm0 0"/>
</symbol>


<symbol id="whatsapp" viewBox="-23 -21 682 682.66669">
    <path d="m544.386719 93.007812c-59.875-59.945312-139.503907-92.9726558-224.335938-93.007812-174.804687 0-317.070312 142.261719-317.140625 317.113281-.023437 55.894531 14.578125 110.457031 42.332032 158.550781l-44.992188 164.335938 168.121094-44.101562c46.324218 25.269531 98.476562 38.585937 151.550781 38.601562h.132813c174.785156 0 317.066406-142.273438 317.132812-317.132812.035156-84.742188-32.921875-164.417969-92.800781-224.359376zm-224.335938 487.933594h-.109375c-47.296875-.019531-93.683594-12.730468-134.160156-36.742187l-9.621094-5.714844-99.765625 26.171875 26.628907-97.269531-6.269532-9.972657c-26.386718-41.96875-40.320312-90.476562-40.296875-140.28125.054688-145.332031 118.304688-263.570312 263.699219-263.570312 70.40625.023438 136.589844 27.476562 186.355469 77.300781s77.15625 116.050781 77.132812 186.484375c-.0625 145.34375-118.304687 263.59375-263.59375 263.59375zm144.585938-197.417968c-7.921875-3.96875-46.882813-23.132813-54.148438-25.78125-7.257812-2.644532-12.546875-3.960938-17.824219 3.96875-5.285156 7.929687-20.46875 25.78125-25.09375 31.066406-4.625 5.289062-9.242187 5.953125-17.167968 1.984375-7.925782-3.964844-33.457032-12.335938-63.726563-39.332031-23.554687-21.011719-39.457031-46.960938-44.082031-54.890626-4.617188-7.9375-.039062-11.8125 3.476562-16.171874 8.578126-10.652344 17.167969-21.820313 19.808594-27.105469 2.644532-5.289063 1.320313-9.917969-.664062-13.882813-1.976563-3.964844-17.824219-42.96875-24.425782-58.839844-6.4375-15.445312-12.964843-13.359374-17.832031-13.601562-4.617187-.230469-9.902343-.277344-15.1875-.277344-5.28125 0-13.867187 1.980469-21.132812 9.917969-7.261719 7.933594-27.730469 27.101563-27.730469 66.105469s28.394531 76.683594 32.355469 81.972656c3.960937 5.289062 55.878906 85.328125 135.367187 119.648438 18.90625 8.171874 33.664063 13.042968 45.175782 16.695312 18.984374 6.03125 36.253906 5.179688 49.910156 3.140625 15.226562-2.277344 46.878906-19.171875 53.488281-37.679687 6.601563-18.511719 6.601563-34.375 4.617187-37.683594-1.976562-3.304688-7.261718-5.285156-15.183593-9.253906zm0 0" fill-rule="evenodd"/>
</symbol>

<symbol id="viber" viewBox="0 0 52.511 52.511">
    <g>
        <path d="M31.256,0H21.254C10.778,0,2.255,8.521,2.255,18.995v9.01c0,7.8,4.793,14.81,12,17.665v5.841
        c0,0.396,0.233,0.754,0.595,0.914c0.13,0.058,0.268,0.086,0.405,0.086c0.243,0,0.484-0.089,0.671-0.259L21.725,47h9.531
        c10.476,0,18.999-8.521,18.999-18.995v-9.01C50.255,8.521,41.732,0,31.256,0z M48.255,28.005C48.255,37.376,40.63,45,31.256,45
        h-9.917c-0.248,0-0.487,0.092-0.671,0.259l-4.413,3.997v-4.279c0-0.424-0.267-0.802-0.667-0.942
        C8.81,41.638,4.255,35.196,4.255,28.005v-9.01C4.255,9.624,11.881,2,21.254,2h10.002c9.374,0,16.999,7.624,16.999,16.995V28.005z"
        />
        <path d="M39.471,30.493l-6.146-3.992c-0.672-0.437-1.472-0.585-2.255-0.423c-0.784,0.165-1.458,0.628-1.895,1.303l-0.289,0.444
        c-2.66-0.879-5.593-2.002-7.349-7.085l0.727-0.632h0c1.248-1.085,1.379-2.983,0.294-4.233l-4.808-5.531
        c-0.362-0.417-0.994-0.46-1.411-0.099l-3.019,2.624c-2.648,2.302-1.411,5.707-1.004,6.826c0.018,0.05,0.04,0.098,0.066,0.145
        c0.105,0.188,2.612,4.662,6.661,8.786c4.065,4.141,11.404,7.965,11.629,8.076c0.838,0.544,1.781,0.805,2.714,0.805
        c1.638,0,3.244-0.803,4.202-2.275l2.178-3.354C40.066,31.413,39.934,30.794,39.471,30.493z M35.91,34.142
        c-0.901,1.388-2.763,1.782-4.233,0.834c-0.073-0.038-7.364-3.835-11.207-7.75c-3.592-3.659-5.977-7.724-6.302-8.291
        c-0.792-2.221-0.652-3.586,0.464-4.556l2.265-1.968l4.152,4.776c0.369,0.424,0.326,1.044-0.096,1.411l-1.227,1.066
        c-0.299,0.26-0.417,0.671-0.3,1.049c2.092,6.798,6.16,8.133,9.13,9.108l0.433,0.143c0.433,0.146,0.907-0.021,1.155-0.403
        l0.709-1.092c0.146-0.226,0.37-0.379,0.63-0.434c0.261-0.056,0.527-0.004,0.753,0.143l5.308,3.447L35.91,34.142z"/>
        <path d="M28.538,16.247c-0.532-0.153-1.085,0.156-1.236,0.688c-0.151,0.531,0.157,1.084,0.688,1.235
        c1.49,0.424,2.677,1.613,3.097,3.104c0.124,0.44,0.525,0.729,0.962,0.729c0.09,0,0.181-0.012,0.272-0.037
        c0.531-0.15,0.841-0.702,0.691-1.234C32.405,18.578,30.69,16.859,28.538,16.247z"/>
        <path d="M36.148,22.219c0.09,0,0.181-0.012,0.272-0.037c0.532-0.15,0.841-0.703,0.691-1.234c-1.18-4.183-4.509-7.519-8.689-8.709
        c-0.531-0.153-1.084,0.158-1.235,0.689c-0.151,0.531,0.157,1.084,0.688,1.235c3.517,1,6.318,3.809,7.311,7.328
        C35.311,21.931,35.711,22.219,36.148,22.219z"/>
        <path d="M27.991,7.582c-0.532-0.153-1.085,0.156-1.236,0.689c-0.151,0.531,0.157,1.084,0.688,1.235
        c5.959,1.695,10.706,6.453,12.388,12.416c0.124,0.44,0.525,0.729,0.962,0.729c0.09,0,0.181-0.012,0.272-0.037
        c0.531-0.15,0.841-0.703,0.691-1.234C39.887,14.753,34.613,9.467,27.991,7.582z"/>
	</g>
</symbol>

<symbol id="telegram" viewBox="0 0 512.004 512.004">
    <path d="M508.194,20.517c-4.43-4.96-11.42-6.29-17.21-3.76l-482,211c-5.34,2.34-8.85,7.57-8.98,13.41  c-0.13,5.83,3.14,11.21,8.38,13.79l115.09,56.6l28.68,172.06c0.93,6.53,6.06,11.78,12.74,12.73c4.8,0.69,9.57-1,12.87-4.4  l90.86-90.86l129.66,92.62c4.16,2.96,9.52,3.61,14.24,1.74c4.73-1.87,8.19-6.02,9.19-11.01l90-451  C512.604,28.967,511.454,24.177,508.194,20.517z M135.354,283.967l-84.75-41.68l334.82-146.57L135.354,283.967z M182.294,328.557  l-13.95,69.75l-15.05-90.3l183.97-138.49l-150.88,151.39C184.264,323.027,182.854,325.787,182.294,328.557z M191.424,435.857  l15.74-78.67l36.71,26.22L191.424,435.857z M396.834,455.797l-176.73-126.23l252.47-253.31L396.834,455.797z"/>
</symbol>

<symbol id="meat" viewBox="0 0 512 512">
    <g>
		<path d="M468.467,125.688c-23.347-18.607-56.3-33.841-97.944-45.277c-80.091-21.994-170.408-24.368-205.522-24.368
		C74.019,56.043,0,130.063,0,221.045v69.91c0,90.983,74.019,165.002,165.001,165.002c41.953,0,73.46-13.142,106.817-27.056
		c34.496-14.389,70.165-29.267,120.331-29.267c66.086,0,119.851-53.766,119.851-119.851v-69.91
		C512,177.034,497.353,148.71,468.467,125.688z M460.046,296.642c3.786,4.023,10.115,4.212,14.136,0.427
		c6.782-6.386,12.748-13.501,17.818-21.162v3.876c0,55.059-44.793,99.851-99.851,99.851c-54.17,0-91.718,15.662-128.03,30.808
		c-31.457,13.121-61.169,25.515-99.118,25.515c-76.82,0-139.869-60.053-144.693-135.678c28.08,51.073,82.409,85.766,144.693,85.766
		c41.953,0,73.46-13.142,106.817-27.056c34.496-14.389,70.165-29.267,120.331-29.267c3.727,0,7.492-0.176,11.192-0.522
		c5.499-0.515,9.539-5.39,9.024-10.889c-0.515-5.498-5.396-9.537-10.889-9.023c-3.083,0.288-6.22,0.435-9.327,0.435
		c-54.17,0-91.718,15.662-128.03,30.808c-31.457,13.121-61.169,25.515-99.118,25.515c-79.954,0-145.001-65.047-145.001-145
		c0-79.954,65.047-145.002,145.001-145.002c34.303,0,122.481,2.305,200.226,23.654C449.347,122.799,492,159.867,492,209.873
		c0,27.295-11.492,53.769-31.528,72.633C456.451,286.292,456.26,292.621,460.046,296.642z"/>
		<path d="M451.823,303.025c-2.352-4.997-8.311-7.142-13.306-4.79c-0.072,0.033-0.167,0.08-0.238,0.115
		c-4.939,2.47-6.941,8.477-4.472,13.416c1.752,3.504,5.284,5.53,8.953,5.53c1.482,0,2.986-0.331,4.404-1.028
		C452.067,313.875,454.154,307.978,451.823,303.025z"/>
		<path d="M237.188,98.862l-0.515-0.042c-5.514-0.43-10.325,3.668-10.764,9.174c-0.439,5.505,3.668,10.324,9.173,10.764l0.511,0.04
		c0.271,0.022,0.54,0.033,0.808,0.033c5.161,0,9.538-3.97,9.958-9.203C246.799,104.122,242.693,99.303,237.188,98.862z"/>
		<path d="M465.756,182.933c-9.919-19.604-31.989-36.546-65.599-50.354c-27.195-11.173-56.936-18.231-77.097-22.186
		c-12.083-2.369-24.745-4.485-37.635-6.287c-5.467-0.772-10.523,3.048-11.289,8.519c-0.765,5.47,3.049,10.523,8.519,11.288
		c12.53,1.752,24.829,3.807,36.556,6.107c68.69,13.471,115.599,36.048,128.699,61.94c2.752,5.441,4.09,11.3,4.09,17.912
		c0,33.001-26.849,59.85-59.851,59.85c-33.368,0-65.771,5.453-99.061,16.672c-14.338,4.833-28.26,10.61-41.723,16.198
		c-8.905,3.695-18.113,7.517-27.253,10.98c-23.065,8.742-40.744,12.472-59.111,12.472c-57.898,0-105.002-47.103-105.002-105
		c0-57.898,47.104-105.002,105.002-105.002c11.295,0,22.762,0.214,34.08,0.636c1.921,0.071,3.844,0.148,5.768,0.233
		c5.513,0.25,10.188-4.032,10.431-9.55c0.244-5.517-4.032-10.188-9.549-10.431c-1.97-0.087-3.94-0.166-5.906-0.239
		C188.26,96.26,176.543,96.042,165,96.042c-68.926,0-125.002,56.075-125.002,125.002c0,68.925,56.075,125,125.002,125
		c20.935,0,40.733-4.118,66.199-13.77c9.431-3.574,18.785-7.456,27.832-11.211c13.153-5.458,26.754-11.103,40.444-15.717
		c31.198-10.514,61.512-15.625,92.674-15.625c44.03,0.002,79.851-35.819,79.851-79.848
		C472,200.051,469.957,191.239,465.756,182.933z"/>
		<path d="M174.578,135.82c-27.956,0-50.701,20.625-50.701,45.977s22.745,45.977,50.701,45.977
		c27.957,0,50.701-20.625,50.701-45.977S202.535,135.82,174.578,135.82z M174.578,207.773c-16.929,0-30.701-11.653-30.701-25.977
		c0-14.323,13.772-25.977,30.701-25.977s30.701,11.653,30.701,25.977C205.279,196.12,191.507,207.773,174.578,207.773z"/>
	</g>
</symbol>

<symbol id="chicken" viewBox="0 0 512.031 512.031">
    <g><path d="m250.673 80.172c2.929-2.929 2.929-7.678 0-10.607s-7.678-2.929-10.607 0-2.929 7.678 0 10.607 7.678 2.929 10.607 0zm-19.173-28.716c2.929-2.929 2.929-7.678 0-10.606s-7.678-2.929-10.607 0-2.929 7.678 0 10.606c2.929 2.929 7.678 2.929 10.607 0zm22.294 164.365c26.484-1.501 51.409-12.667 70.182-31.44 20.592-20.592 31.821-47.972 31.618-77.096-.203-29.118-11.821-56.343-32.713-76.661-28.499-27.716-69.729-37.542-107.596-25.646-3.952 1.242-6.148 5.452-4.907 9.403 1.242 3.952 5.451 6.147 9.403 4.907 32.602-10.243 68.1-1.779 92.641 22.088 17.992 17.497 27.996 40.94 28.171 66.012.175 25.078-9.494 48.654-27.225 66.385-16.165 16.164-37.624 25.778-60.425 27.071-29.636 1.68-58.965 13.358-82.586 32.883l-34.059 28.153c-12.463 10.34-29.573 9.085-40.58-1.922-11.009-11.009-12.242-28.13-1.922-40.58l26.75-32.361c20.137-24.361 32.029-54.069 34.393-85.911 1.664-22.411 11.407-43.458 27.436-59.265 2.71-2.673 5.6-5.198 8.588-7.505 3.279-2.531 3.884-7.241 1.353-10.52s-7.242-3.883-10.52-1.353c-3.465 2.676-6.814 5.602-9.954 8.698-18.614 18.357-29.93 42.803-31.862 68.835-2.132 28.725-12.85 55.512-30.995 77.464l-26.75 32.361c-8.505 10.289-11.755 23.19-9.921 35.452l-14.089 14.089c-15.264-9.924-35.878-7.375-48.295 6.094-13.382 14.521-13.219 37.13.367 51.467 4.871 5.148 11.06 8.805 17.877 10.556 1.769 6.83 5.423 13.02 10.572 17.903 7.239 6.86 16.583 10.297 25.934 10.296 9.169-.001 18.345-3.308 25.536-9.934 13.473-12.41 16.024-33.022 6.103-48.285l14.093-14.093c12.524 1.871 25.178-1.467 35.443-9.927l34.059-28.153c21.175-17.499 47.412-27.964 73.88-29.465zm-168.73 71.684c-4.722 4.701-5.401 12.141-1.61 17.697 6.308 9.229 4.847 21.916-3.4 29.513-8.745 8.058-22.356 7.961-30.986-.216-3.104-2.945-5.308-6.672-6.372-10.782-1.364-5.258-5.478-9.372-10.739-10.737-4.108-1.064-7.83-3.265-10.767-6.369-8.183-8.636-8.284-22.248-.229-30.988 7.6-8.244 20.288-9.708 29.518-3.398 5.533 3.775 12.967 3.112 17.691-1.592l9.627-9.627c1.963 3.417 4.397 6.638 7.317 9.559 2.923 2.923 6.148 5.358 9.568 7.322zm416.669-92.389c-4.871-5.148-11.06-8.805-17.877-10.556-1.769-6.83-5.423-13.02-10.572-17.903-14.337-13.587-36.947-13.746-51.47-.363-13.473 12.41-16.024 33.022-6.103 48.285l-14.098 14.097c-12.259-1.83-25.154 1.421-35.439 9.923l-34.059 28.153c-21.174 17.502-47.412 27.968-73.878 29.469-15.902.901-31.66 5.393-45.568 12.988-3.635 1.985-4.973 6.542-2.988 10.177 1.986 3.635 6.542 4.974 10.177 2.988 11.968-6.536 25.532-10.401 39.228-11.178 29.636-1.68 58.965-13.358 82.586-32.883l34.059-28.153c12.452-10.343 29.634-9.023 40.58 1.922 10.931 10.93 12.264 28.146 1.922 40.58l-26.75 32.361c-20.137 24.361-32.029 54.069-34.393 85.911-1.664 22.411-11.407 43.458-27.436 59.265-17.449 17.208-40.509 26.733-64.932 26.821-.115 0-.227 0-.341 0-24.297-.001-47.29-9.353-64.774-26.356-35.736-34.754-37.832-91.126-4.772-128.338 2.751-3.097 2.471-7.837-.625-10.588-3.097-2.751-7.837-2.471-10.588.625-38.4 43.223-35.971 108.695 5.528 149.054 20.302 19.745 47.004 30.603 75.23 30.603h.396c28.37-.103 55.151-11.162 75.411-31.14 18.614-18.357 29.93-42.803 31.862-68.835 2.132-28.725 12.85-55.512 30.995-77.464l26.75-32.361c8.505-10.289 11.755-23.19 9.921-35.452l14.089-14.089c15.263 9.923 35.878 7.375 48.295-6.094 13.383-14.523 13.22-37.132-.366-51.469zm-10.662 41.301c-7.601 8.244-20.289 9.707-29.518 3.398-5.532-3.774-12.967-3.111-17.691 1.592l-9.627 9.627c-1.963-3.417-4.397-6.638-7.317-9.559-2.923-2.923-6.148-5.358-9.568-7.323l9.618-9.617c4.722-4.701 5.401-12.141 1.61-17.697-6.308-9.229-4.847-21.916 3.4-29.513 8.744-8.058 22.355-7.962 30.986.216 3.104 2.945 5.308 6.672 6.372 10.782 1.364 5.258 5.478 9.372 10.739 10.737 4.108 1.064 7.83 3.265 10.767 6.369 8.183 8.636 8.283 22.248.229 30.988zm-222.536-184.961c2.929-2.929 2.929-7.678 0-10.606-2.929-2.929-7.678-2.929-10.607 0s-2.929 7.678 0 10.606c2.929 2.929 7.678 2.929 10.607 0zm22.602 419.735c2.929-2.929 2.929-7.678 0-10.606-2.929-2.929-7.678-2.929-10.607 0s-2.929 7.677 0 10.606c2.93 2.929 7.678 2.929 10.607 0zm-19.173-28.715c2.929-2.929 2.929-7.678 0-10.607s-7.678-2.929-10.607 0-2.929 7.678 0 10.607c2.93 2.929 7.678 2.929 10.607 0zm-17.862 28.715c2.929-2.929 2.929-7.678 0-10.606-2.929-2.929-7.678-2.929-10.607 0s-2.929 7.677 0 10.606c2.93 2.929 7.679 2.929 10.607 0z"/></g>
</symbol>

<symbol id="groceries" viewBox="-10 0 512 512.002">
    <path d="m218.421875 0h-189.84375v63.167969h189.84375zm-15 48.167969h-159.84375v-33.167969h159.84375zm0 0"/><path d="m368.636719 472.417969c24.941406-25.183594 38.679687-58.570313 38.679687-94.015625 0-30.421875-10.5-60.1875-29.5625-83.820313-12.058594-14.949219-29.996094-24.109375-49.214844-25.132812-17.128906-.910157-33.953124 4.691406-47.074218 15.511719v-.492188l14.582031-14.566406 9.539063.003906h.03125c33.355468 0 60.503906-27.132812 60.523437-60.492188l.007813-20.152343-20.148438-.007813h-.03125c-16.15625 0-31.34375 6.285156-42.773438 17.703125-11.4375 11.425781-17.738281 26.621094-17.75 42.789063l-.003906 9.546875-3.976562 3.972656v-44.847656h-15v66.496093c-13.101563-10.921874-29.953125-16.632812-47.128906-15.785156-19.027344.929688-36.851563 9.867188-48.890626 24.519532-19.59375 23.847656-30.363281 54.003906-30.324218 84.921874.042968 35.734376 14.175781 69.363282 39.792968 94.691407 25.300782 25.015625 58.5625 38.742187 93.808594 38.742187.457032 0 .917969-.003906 1.371094-.007812 35.394531-.359375 68.617188-14.414063 93.542969-39.578125zm-54.84375-254.847657c8.597656-8.589843 20.019531-13.316406 32.171875-13.316406h5.175781l-.003906 5.152344c-.011719 23.125-17.355469 42.269531-39.714844 45.128906l20.800781-20.78125-10.601562-10.613281-20.808594 20.789063c1.269531-9.953126 5.765625-19.152344 12.980469-26.359376zm-38.851563 279.421876c-31.714844.304687-61.722656-11.894532-84.480468-34.398438-22.753907-22.496094-35.304688-52.339844-35.34375-84.042969-.03125-27.445312 9.523437-54.214843 26.914062-75.378906 9.496094-11.558594 23.003906-18.328125 38.035156-19.0625.863282-.042969 1.726563-.0625 2.589844-.0625 14.097656 0 27.734375 5.613281 37.746094 15.625l13.558594 13.5625 13.289062-13.289063c10.664062-10.667968 25.414062-16.324218 40.488281-15.519531 14.976563.800781 28.949219 7.933594 38.339844 19.574219 17.164063 21.277344 26.238281 47.003906 26.238281 74.402344 0 64.738281-52.65625 117.9375-117.375 118.589844zm0 0"/><path d="m165.117188 378.539062c.035156 28.824219 11.40625 56.027344 32.019531 76.589844l10.59375-10.617187c-17.773438-17.734375-27.582031-41.171875-27.613281-65.992188zm0 0"/><path d="m426.914062 210.117188v261.882812h-47.726562v15h62.726562v-261.882812h17.5c4.355469 0 7.894532-3.542969 7.894532-7.894532v-14.042968c0-17.863282-14.53125-32.394532-32.390625-32.394532h-175.417969v15h175.417969c9.589843 0 17.390625 7.804688 17.390625 17.394532v6.9375zm0 0"/><path d="m434.917969 145.785156h-186.964844v15h186.964844c23.375 0 42.390625 19.019532 42.390625 42.394532v14.042968c0 9.867188-8.027344 17.894532-17.894532 17.894532h-7.5v261.882812h-104.300781v15h119.300781v-262.746094c14.535157-3.402344 25.394532-16.472656 25.394532-32.03125v-14.042968c0-31.648438-25.746094-57.394532-57.390625-57.394532zm0 0"/><path d="m247 258.289062v-84.957031l-44.328125-61.4375v-21.144531h1.855469l9.394531-9.394531v-10.6875h-15v4.476562l-.605469.605469h-10.644531v40.992188l44.328125 61.4375v80.109374zm0 0"/><path d="m222 256.957031v-37.703125h-197v267.746094h143.515625v-15h-128.515625v-237.746094h167v22.703125zm0 0"/><path d="m65 424.78125h-15v-129.308594h15zm0-139.308594h-15v-15h15zm0-25h-15v-15h15zm0 0"/><path d="m15 497v-313.746094h85.539062v-15h-78.378906l37.171875-51.511718v-26.039063l64.210938.046875v-15h-74.855469l-.609375-.605469v-4.476562h-15v10.6875l9.394531 9.394531h1.859375v21.144531l-44.332031 61.4375v338.667969h200.117188v-15zm0 0"/><path d="m190.335938 40h-42.667969v-15h42.667969zm-52.667969 0h-15v-15h15zm-25 0h-15v-15h15zm0 0"/><path d="m350.875 454.824219-10.65625-10.554688c17.472656-17.644531 27.097656-41.035156 27.097656-65.867187 0-5.785156-.515625-11.546875-1.539062-17.128906l14.757812-2.695313c1.183594 6.46875 1.78125 13.140625 1.78125 19.824219 0 28.8125-11.167968 55.953125-31.441406 76.421875zm12.789062-102.546875c-1.277343-4.425782-2.902343-8.792969-4.835937-12.976563l13.617187-6.289062c2.25 4.871093 4.144532 9.953125 5.632813 15.105469zm-9.128906-21.164063c-2.328125-3.953125-4.992187-7.792969-7.914062-11.417969l11.671875-9.417968c3.382812 4.1875 6.464843 8.636718 9.164062 13.214844zm0 0"/>
</symbol>

<symbol id="kebab" viewBox="0 0 60 60">
<path id="Shape" d="m56.846 2.444c-3.4114215-2.19894041-7.8682578-1.86472199-10.9135725.81840946s-3.9381982 7.06238374-2.1864275 10.72359054l-1.09 1.09-2.871-2.871c-1.1869844-1.1341025-3.0560156-1.1341025-4.243 0l-3.591 3.595c-1.169058 1.1727537-1.169058 3.0702463 0 4.243l1.151 1.15c-.1-.007-.192-.021-.289-.025-2.0954679-.1092416-4.134798.6985353-5.5870993 2.2130452-1.4523014 1.5145099-2.1738839 3.5859079-1.9769007 5.6749548l-1.144-1.143c-1.1808637-1.1650855-3.0806945-1.1586967-4.2536956.0143044s-1.1793899 3.0728319-.0143044 4.2536956l1.143 1.143c-2.0890469-.1969832-4.1604449.5245993-5.6749548 1.9769007-1.5145099 1.4523013-2.3222868 3.4916314-2.2130452 5.5870993 0 .1.018.193.025.29l-1.151-1.151c-1.1714996-1.1711458-3.07050045-1.1711458-4.242 0l-2.151 2.15-2.153 2.153c-1.17114581 1.1714996-1.17114581 3.0705004 0 4.242l2.872 2.872-2.146 2.146c-.07566487.0764826-.13907736.1641807-.188.26l-2.853 5.706c-.19446207.3852584-.11983923.8518056.1850888 1.1571881.30492804.3053825.77136359.3807 1.1569112.1868119l5.706-2.853c.09655033-.0477189.18443143-.1112637.26-.188l2.146-2.146 2.872 2.872c1.1714996 1.1711458 3.0705004 1.1711458 4.242 0l4.305-4.3c1.169058-1.1727537 1.169058-3.0702463 0-4.243l-1.151-1.151c.1.007.192.022.29.025s.2.006.3.006c1.9420272.0147899 3.8089305-.7495491 5.183-2.122 1.5052705-1.5292957 2.2650482-3.641251 2.079-5.779l1.143 1.143c.7543538.7977181 1.8824101 1.1228484 2.9456154.8489903 1.0632053-.2738582 1.8938183-1.1034983 2.1689223-2.166382.2751039-1.0628836-.0487042-2.1913202-.8455377-2.9466083l-1.141-1.144c.194.015.389.029.584.029 1.995583.0256858 3.9127141-.7761379 5.2957953-2.2149213s2.1086234-3.3860639 2.0042047-5.3790787c0-.1-.018-.193-.025-.29l1.151 1.151c.5626237.562719 1.3257625.8788593 2.1215.8788593s1.5588763-.3161403 2.1215-.8788593l3.597-3.594c.562719-.5626237.8788593-1.3257625.8788593-2.1215s-.3161403-1.5588763-.8788593-2.1215l-2.872-2.872 2.2-2.2c1.4031488-1.420337 1.5590607-3.6523836.367-5.254-.5003092-.673269-.7004101-1.5232454-.553-2.349.1555003-.84472753.6545037-1.58707662 1.378-2.05.9822262-.63406868 2.2447738-.63406868 3.227 0 .783647.49236478 1.3003275 1.31489251 1.4036839 2.23458981.1033565.91969729-.2178688 1.83638969-.8726839 2.49041019-1.1767691 1.178933-1.1767691 3.088067 0 4.267 1.1961931 1.1352468 3.0718069 1.1352468 4.268 0 1.9373786-1.9400879 2.8940121-4.6519306 2.6027441-7.37819915-.291268-2.72626851-1.7992236-5.17480041-4.1027441-6.66180085zm-49.732 53.885-2.878 1.439 1.439-2.878 2.031-2.032 1.439 1.442zm13.449-3.464-1.444 1.445-.007-.007c-.3947662-.3628283-1.0054379-.3497457-1.3843032.0296562s-.3910835.9900915-.0276968 1.3843438l.007.007-1.446 1.445c-.3958895.3771429-1.0181105.3771429-1.414 0l-10.013-10.011c-.39038194-.3904999-.39038194-1.0235001 0-1.414l1.445-1.444.006.006c.2527654.2527654.62117901.3514816.96646299.258963.34528397-.0925186.61498146-.362216.70750001-.7075.09251856-.345284-.00619758-.7136976-.258963-.966463l-.006-.006 1.445-1.445c.39049985-.3903819 1.0235001-.3903819 1.414 0l10.01 10.01c.187777.1875683.2932867.4420908.2932867.7075s-.1055097.5199317-.2932867.7075zm4.625-7.477c-2.368446 2.1662071-6.0434021 2.0065042-8.215-.357-2.3586591-2.1738503-2.5181849-5.8447304-.357-8.215 2.3674517-2.1568059 6.031199-2.0010062 8.207.349l.012.012c2.3537947 2.1750766 2.5114371 5.8419376.353 8.211zm7.489-6.076c.3769654.4006882.3673936 1.0283782-.0216141 1.4173859s-1.0166977.3985795-1.4173859.0216141l-4.988-4.987v-.006l-.005-.005-4.988-4.987c-.3873105-.3990994-.3826536-1.0351631.0104588-1.4285488.3931125-.3933856 1.0291728-.3984843 1.4285412-.0114512l4.991 4.991zm4.636-6.05c-2.3690624 2.1584371-6.0359234 2.0007947-8.211-.353l-.002-.009c-2.3548664-2.1745799-2.5125474-5.8423404-.353-8.211 2.3704714-2.1606285 6.0409004-2.0011223 8.215.357 2.3575569 2.1756467 2.5144117 5.8472106.351 8.216zm11.365-8.926c.0009424.2653928-.1046045.520074-.293.707l-.736.736-.006-.007c-.3907415-.3904653-1.0240347-.3902414-1.4145.0005-.3904653.3907415-.3902414 1.0240347.0005 1.4145l.006.006-1.444 1.445c-.1875683.187777-.4420908.2932867-.7075.2932867s-.5199317-.1055097-.7075-.2932867l-10.011-10.011c-.3903819-.3904999-.3903819-1.0235001 0-1.414l1.445-1.445.007.006c.2510745.2599566.6228779.3642126.9725073.2726972.3496295-.0915155.6226744-.3645604.7141899-.7141899.0915154-.3496294-.0127406-.7214328-.2726972-.9725073l-.006-.006.735-.735c.395481-.3781625 1.018519-.3781625 1.414 0l10.011 10.011c.188338.1865548.2938987.4409093.293.706zm8.254-9.266c-.4044029.3809809-1.0355971.3809809-1.44 0-.3960085-.3979314-.3960085-1.0410686 0-1.439 1.8957103-1.900173 1.9667263-4.95362376.1614049-6.93987391-1.8053214-1.98625014-4.8516601-2.20630803-6.9237096-.50014692-2.0720495 1.70616112-2.4406241 4.73811723-.8376953 6.89102083.6025609.8041168.526905 1.9279048-.178 2.644l-2.2 2.2-1.44-1.436 1.611-1.611c.3210071-.3213852.3850776-.8187533.156-1.211-.852216-1.454564-1.1601827-3.1645057-.869-4.825.5306964-2.99940449 2.9232662-5.32144265 5.9372035-5.76217804 3.0139374-.44073539 5.9712209 1.09898071 7.3385505 3.82083224s.837108 6.0135254-1.315754 8.1683458z"/><path id="Shape" d="m31.957 25.766c-.3940152.3940476-.3939978 1.032896.000039 1.426922s1.0328852.394026 1.426922 0 .3940542-1.0328744.000039-1.426922c-.3945011-.392977-1.0324989-.392977-1.427 0z"/><path id="Shape" d="m22.685 40.745c-.288848.2884672-.3754177.7225604-.2193217 1.0997613s.5240982.6231799.9323217.6231799.7762257-.245979.9323217-.6231799.0695263-.8112941-.2193217-1.0997613c-.3939311-.3934118-1.0320689-.3934118-1.426 0z"/></symbol>

<symbol id="delivery" viewBox="0 0 512 512">
<path d="m484.827 157.974h-86.825c-14.983 0-27.173 12.196-27.173 27.188v99.934h-32.476c1.805-6.561 2.474-14.3 2.035-23.306v-.001c-.705-38.059-7.611-70.135-20.528-95.337-10.03-19.567-21.735-31.298-31.779-38.311 11.789-12.121 18.605-29.364 18.605-49.251 0-35.781-28.543-64.89-63.626-64.89s-63.626 29.109-63.626 64.89c0 4.143 3.358 7.5 7.5 7.5h5.096c-.469 2.83-.719 5.714-.719 8.643 0 25.216 18.018 46.291 41.84 51.014-2.497 9.272-3.738 20.205-3.733 32.625l-18.706 16.089-45.515 3.681-52.503-17.356c-4.812-1.6-10.266-3.408-14.998.004-4.663 3.365-4.663 9.256-4.663 11.191v39.035c0 4.143 3.358 7.5 7.5 7.5h8.929l-13.695 47.324c-1.151 3.978 1.141 8.138 5.12 9.289 3.981 1.157 8.138-1.141 9.29-5.119l14.902-51.494h21.322c-26.52 80.872-11.388 134.854 11.871 189.485h-13.482l-56.153-62.786 11.874-41.02c1.152-3.979-1.14-8.138-5.119-9.289s-8.138 1.141-9.29 5.119l-11.357 39.237c-35.126-.586-66.546 23.632-74.553 58.475-.927 4.036 1.592 8.06 5.627 8.988l10.647 2.45c-2.72 28.252 15.885 54.907 44.259 61.438 4.309.993 8.655 1.483 12.971 1.483 10.644 0 21.101-2.984 30.35-8.781 10.855-6.802 18.943-16.802 23.32-28.62l8.401 1.933c2.503.579 4.877.872 7.249-.405 2.207-1.188 3.674-3.333 4.224-5.754.528-2.455.93-4.95 1.209-7.468h156.858c5.016 31.187 31.551 54.696 63.242 54.696s58.227-23.509 63.243-54.696h5.724s1.136.013 1.395.013c2.145 0 5.243-.238 7.787-2.826 1.273-1.295 2.767-3.612 2.652-7.293-.211-7.043-1.268-13.848-3.072-20.316 5.974-36.268.226-58.357-8.295-75.644 5.387-3.531 8.959-9.615 8.959-16.527v-20.613h37.883c14.983 0 27.173-12.196 27.173-27.188v-87.746c.002-14.991-12.187-27.187-27.171-27.187zm-388.746 312.933c-9.601 6.017-20.961 7.93-31.989 5.391h-.001c-20.298-4.672-33.84-23.285-32.853-43.411l81.353 18.724c-3.366 7.925-9.061 14.628-16.51 19.296zm37.528-29.866-116.665-26.846c9.003-24.654 33.231-40.974 59.714-39.57l57.151 63.901c-.05.843-.116 1.681-.2 2.515zm113.285-130.695c-2.177 5.742-2.177 12.821-2.177 22.62v28.302h-27.463v-38.828c0-43.898 23.958-51.721 34.71-53.012h73.529c-.296 9.963-2.544 17.045-6.812 21.54-4.974 5.238-13.485 7.79-26.021 7.802l-26.921.028c-9.6.001-15.94 3.885-18.845 11.548zm-2.177 65.921v17.908c-.068 0-.138 0-.21 0h-53.273c.599-5.554 2.329-9.852 5.17-12.826 4.226-4.422 10.178-5.082 13.35-5.082zm80.445-121.838h-68.207c-2.739-8.619-5.181-18.057-7.189-27.757l20.737-13.46c11.32-7.351 17.209-17.738 16.157-28.499-.932-9.539-7.417-18.06-16.521-21.707-8.314-3.33-17.263-2.284-25.172 2.773.652-7.174 1.866-13.578 3.622-19.014 3.197-.33 6.372-.955 9.49-1.872 6.347-1.474 12.212-3.823 17.507-6.938 14.445 8.63 46.215 36.622 49.576 116.474zm-130.179-183.038c3.537-23.964 23.749-42.39 48.077-42.39 26.812 0 48.626 22.381 48.626 49.89 0 22.374-10.729 40.407-28.029 48.343v-39.463c0-6.833-2.615-15.215-15.069-16.349-.226-.021-.453-.031-.68-.031zm11.329 23.643c0-2.96.337-5.851 1-8.643h40.228c.463.05.801.104 1.043.153.039.278.073.678.073 1.227v43.876c-1.787.263-3.585.396-5.382.397-.017 0-.034 0-.05 0-20.356-.019-36.912-16.614-36.912-37.01zm-9.723 115.92 17.764-1.437c1.583-.127 3.084-.754 4.289-1.789l32.06-27.575.005-.005c3.1-2.671 6.409-4.041 9.631-4.041 1.434 0 2.851.272 4.224.822 3.963 1.587 6.777 5.215 7.171 9.241.495 5.067-2.843 10.203-9.396 14.459l-35.725 23.188h-30.021v-12.863zm-31.696 2.564 16.696-1.35v11.651h-19.401c-2.515 0-3.128-2.09-3.2-3.843-.041-.994.053-5.978 5.905-6.458zm-17.751-5.178c-2.259 3.704-3.314 8.037-3.141 12.25.045 1.091.184 2.142.378 3.166 0 .021-.012.042-.008.062h-36.336v-28.473l39.136 12.937c-.012.02-.018.039-.029.058zm15.088 30.478h66.601c1.449 0 2.868-.42 4.083-1.209l3.395-2.204c1.633 7.218 3.493 14.242 5.519 20.876-15.296 4.515-39.575 19.106-39.575 66.158v39.581c-5.262 1.062-11.487 3.516-16.694 8.965-5.489 5.744-8.624 13.527-9.376 23.189h-15.13c-15.246-43.938-21.044-90.694 1.177-155.356zm12.362 189.458c-2.772-6.375-5.444-12.726-7.96-19.101h77.874c10.093 0 15.21-4.595 15.21-13.656v-26.752-28.302h59.199c4.143 0 7.5-3.357 7.5-7.5s-3.357-7.5-7.5-7.5h-59.145c.096-4.26.369-7.744 1.15-9.802.379-1.001.707-1.865 4.826-1.865l26.928-.028c16.865-.016 28.93-4.096 36.885-12.474.368-.388.716-.795 1.065-1.2h47.706 53.615v20.613c0 2.578-2.173 4.756-4.745 4.756h-74.665c-4.143 0-7.5 3.357-7.5 7.5s3.357 7.5 7.5 7.5h70.258c5.928 11.003 11.26 24.694 10.943 46.325-14.838-20.611-38.859-33.864-66.121-33.864-21.894 0-42.438 8.588-57.849 24.183-13.675 13.837-21.888 31.796-23.578 51.192zm193.958 54.723c-23.446 0-43.22-16.893-48.004-39.696h96.008c-4.785 22.801-24.559 39.696-48.004 39.696zm56.524-54.696h-113.046-10.775c3.682-33.913 32.038-60.377 66.362-60.377 30.135 0 55.442 19.871 63.823 47.688.027.088.054.176.084.263 1.185 3.991 2.022 8.145 2.475 12.426zm71.926-155.395c0 6.721-5.461 12.188-12.173 12.188h-98.998v-38.731h111.171zm0-41.543h-111.171v-15.951h111.171zm0-30.951h-111.171v-15.252c0-6.721 5.461-12.188 12.173-12.188h86.825c6.712 0 12.173 5.468 12.173 12.188z"/></symbol>

<symbol id=""></symbol>
<symbol id=""></symbol>
<symbol id=""></symbol>

</svg>